<?xml version="1.0" encoding="utf-8"?>
<!-- Generator: Adobe Illustrator 19.0.0, SVG Export Plug-In . SVG Version: 6.00 Build 0)  -->
<svg version="1.1" id="Layer_1" xmlns="http://www.w3.org/2000/svg" xmlns:xlink="http://www.w3.org/1999/xlink" x="0px" y="0px"
	 viewBox="0 0 1801.5 395.4" style="enable-background:new 0 0 1801.5 395.4;" xml:space="preserve">
<g>
	<path style="fill:#FFFFFF;" d="M825.2,93.9c0-15.1-0.2-29.9,0.1-44.7c0.1-7,0.7-14,1.8-20.8c1.9-12.2,10.4-20.7,22-22.9
		c11-2.1,22.8,3.3,29.6,12.6c5.8,7.9,5.5,16.8,5.5,25.8c0,57.3-0.2,114.7-0.3,172c0,3.8,0.1,7.7,0,11.5c-0.3,6.5,0.3,12.6,4.2,18.5
		c4.3,6.6,5.1,14.4,3.1,22.2c-5.6,21.9-30.1,24.7-44.3,15c-4.4-3-7.3-2.6-11.8-0.3c-15.9,8.2-32.8,14.2-50.9,14.1
		c-33.3-0.2-57.6-16-74-44.5c-8.1-14.1-10.4-29.7-10.4-45.7c0-22.5,4.4-44,15.6-63.7c16.4-28.8,41.8-44.6,74.4-48.3
		c10.7-1.2,21.6-0.3,32.4-0.3C823,94.1,824,94,825.2,93.9z M827.1,185.9c-0.2,0-0.4,0-0.6,0c0-9.3-0.1-18.6,0-27.9
		c0-3-1.1-4.5-4.1-4.9c-10.6-1.3-21.2-1.8-31.7,1.2c-12.5,3.6-23.2,9.7-27.7,22.7c-2.6,7.5-4.8,15.3-5.6,23.1
		c-1.5,13.5,1.2,25.7,13.8,33.9c6.6,4.3,13.5,2.5,20.3,1.7c12.5-1.5,22.8-7.4,31.5-16.5c3.1-3.2,4.4-6.1,4.2-10.4
		C826.9,201.2,827.1,193.5,827.1,185.9z M127.1,190.7c-21.3-20.2-37-43.9-45.4-72.3c-2.4-8.1-5.2-16.2-9.1-23.6
		c-5.4-10.1-18.3-14.7-29.4-12c-17,4.2-26.8,24.3-21.4,42.3c14,46.5,39.1,85.8,75.7,117.6c2.8,2.4,2.7,4.1,0.9,7.1
		c-5.4,9-10.3,18.3-15.6,27.3c-9.3,15.9-18.9,31.8-28.2,47.7c-4.5,7.6-6.8,15.7-5.7,24.8c2.7,20.6,24.8,31.6,42.5,20.8
		c7.2-4.4,12.4-10.6,16.3-17.9c7.5-14.1,14.5-28.5,22.5-42.3c23.3-40.2,46.3-80.5,64.7-123.3c9.8-22.9,19.9-45.7,24.3-70.5
		c2.8-15.8-7.1-31.3-22.1-35c-15.1-3.6-30.3,5.8-35.2,21.4c-4.1,13.2-8.2,26.4-13,39.3c-6.2,16.5-13.1,32.7-19.7,49.1
		C127.7,190.9,127.3,190.9,127.1,190.7z M1202.6,118.2c-2.3-7.9-5.1-15.9-8.9-23.1c-5.5-10.3-18.4-15-29.7-12.2
		c-16.5,4.2-27,24.1-21.4,41.5c3.6,11.2,7.7,22.3,12.3,33.2c14.2,33.3,36.2,60.8,63,84.7c2.8,2.5,3.6,4.3,1.5,7.8
		c-5.5,9-10.3,18.3-15.6,27.3c-9.2,15.8-18.7,31.5-28,47.3c-4.7,7.9-7.1,16.3-5.7,25.8c2.4,16.3,17.9,27.3,33.9,23.5
		c11.2-2.6,18.6-10.1,23.9-19.7c7.9-14.4,15-29.3,23.3-43.6c24.7-42.5,48.8-85.2,67.9-130.6c8.7-20.7,17.5-41.4,21.3-63.7
		c2.7-15.7-7.4-31.4-22.3-34.8c-15-3.4-30,5.9-35,21.2c-5.7,17.7-11.6,35.4-18.1,52.8c-4.5,12.1-10,23.8-15.5,36.8
		C1227.2,170.6,1211,147,1202.6,118.2z M420.6,186c-1.2,45.9-21.8,81.2-60.8,105.1c-50,30.6-98.7-1.6-115.5-37.9
		c-25.1-54.2,1.2-121.3,44-149.7c29.8-19.8,67-20.4,95-1.3c21.4,14.6,32.3,35.7,35.4,61.1C419.6,170.8,419.9,178.2,420.6,186z
		 M362.3,187.9c0-14.5-1.7-24.2-8.4-32.4c-6.6-8.1-13-9.9-22.9-7c-8.7,2.6-15.9,7.5-21.6,14.5c-8.5,10.4-13.6,22.3-15.6,35.6
		c-1.6,10.5-0.4,20.6,4.1,30.1c5,10.4,13.8,16.2,23.9,14.1c5.9-1.2,12.2-4.1,16.8-8C354.4,221.8,361.5,204,362.3,187.9z
		 M1115.6,186.4c-1.4,45.4-21.7,80.5-60.3,104.4c-50.2,31.1-99.1-1.1-116-37.4c-25.2-54.1,1-121.3,43.8-149.7
		c30-20,67.3-20.5,95.4-1.2c21.2,14.6,31.9,35.6,35.1,60.7C1114.6,170.8,1114.9,178.4,1115.6,186.4z M1057.3,188.8
		c0-17-2.6-26.3-7.9-32.8c-6.8-8.5-13.4-10.5-23.7-7.3c-8.5,2.6-15.6,7.5-21.2,14.3c-8.5,10.4-13.6,22.3-15.7,35.6
		c-1.6,10.5-0.5,20.6,4.1,30.1c4.9,10.4,13.7,16.2,23.8,14.2c5.9-1.2,12.2-4,16.8-7.9C1049.4,221.8,1056.4,204.1,1057.3,188.8z
		 M1541.6,186.1c-1.3,45.9-21.9,81.2-60.9,105.1c-50.1,30.6-98.7-1.8-115.4-38c-25.1-54.2,1.3-121.4,44.1-149.7
		c33.5-22.1,75.6-19.9,103.6,5.6c16,14.5,24.2,33.1,26.8,54.3C1540.6,170.8,1540.9,178.3,1541.6,186.1z M1483.3,187.9
		c0-14.5-1.6-24.4-8.6-32.6c-5.9-7-13-10.3-22.5-6.9c-8.1,2.9-15.1,7-20.7,13.4c-9.3,10.9-14.8,23.5-16.8,37.7
		c-1.4,10.2-0.2,19.9,4.2,29.2c4.9,10.4,13.6,16.3,23.8,14.3c5.9-1.2,12.2-4,16.9-7.9C1475.3,221.9,1482.4,204.2,1483.3,187.9z
		 M1722.9,280.6c13.5,13.8,35.6,12,43.8-3.9c5.8-11.3,5.3-22.6-1.1-33.8c-3.8-6.6-7.5-13.4-9.8-20.6c-8-25.7-5.5-52-3.7-78.3
		c0.7-10.5,1.7-21.4,0.2-31.7c-1.7-11.7-9.9-19.7-21.7-22c-11.9-2.3-21.5,2.6-28.3,12.5c-5.5,8-8.8,17.1-9,26.6
		c-0.4,24.3-0.1,48.6,0,72.9c0,1.5,0.3,3.3-0.4,4.3c-5.6,7.6-11,15.4-19.7,20.2c-12.4,6.8-23.8,3.6-28.8-9.7
		c-3.1-8.1-5.2-17-5.4-25.6c-0.5-17.1,0.8-34.2,1-51.4c0.1-9.8,0.9-19.9-0.9-29.4c-2.2-11.8-11.6-18-22.9-20.3
		c-12.7-2.6-22.9,1.9-28.9,12.7c-2.6,4.7-4.8,10.2-5,15.4c-1.1,27.1-1.8,54.2-2,81.3c-0.1,21.4,6.8,40.8,19.8,58
		c19.5,25.5,49.8,36.5,80.1,28.8c12.1-3.1,22.9-8.9,33.2-16.5C1716.9,274,1719.8,277.4,1722.9,280.6z M601.9,280.6
		c13.5,13.8,35.6,12,43.8-3.9c5.8-11.3,5.3-22.6-1.1-33.8c-3.8-6.6-7.5-13.4-9.8-20.6c-8-25.7-5.5-52-3.7-78.3
		c0.7-10.5,1.7-21.4,0.2-31.7c-1.7-11.7-9.9-19.7-21.7-22c-11.9-2.3-21.5,2.6-28.3,12.5c-5.5,8-8.8,17.1-9,26.6
		c-0.4,24.3-0.1,48.6,0,72.9c0,1.5,0.3,3.3-0.4,4.3c-5.6,7.6-11,15.4-19.7,20.2c-12.4,6.8-23.8,3.6-28.8-9.7
		c-3.1-8.1-5.2-17-5.4-25.6c-0.5-17.1,0.8-34.2,1-51.4c0.1-9.8,0.9-19.9-0.9-29.4c-2.2-11.8-11.6-18-22.9-20.3
		c-12.7-2.6-22.9,1.9-28.9,12.7c-2.6,4.7-4.8,10.2-5,15.4c-1.1,27.1-1.8,54.2-2,81.3c-0.1,21.4,6.8,40.8,19.8,58
		c19.5,25.5,49.9,37,80,28.5c11.7-3.3,22.5-9.5,34.5-14.8C595.9,274,598.8,277.4,601.9,280.6z"/>
</g>
</svg>
