<?xml version="1.0" encoding="utf-8"?>
<!-- Generator: Adobe Illustrator 19.0.0, SVG Export Plug-In . SVG Version: 6.00 Build 0)  -->
<svg version="1.1" id="Layer_1" xmlns="http://www.w3.org/2000/svg" xmlns:xlink="http://www.w3.org/1999/xlink" x="0px" y="0px"
	 viewBox="85 -84 269 269" style="enable-background:new 85 -84 269 269;" xml:space="preserve">
<g>
	<path style="fill:#635E5E;" d="M193.8,122.2c-6.8,2.1-12.3,0.5-17.6-2.3c-1.3-0.7-3.4-1.2-4.5-0.6c-17.1,8.8-32.1,3.4-46-6.9
		c-9.4-7-15.1-17.2-20.1-27.6c-1.3-2.6-0.9-6.2-0.5-9.3c1.1-9.4-1.4-17.8-6-25.8c-2.1-3.6-4.2-7.3-5.5-11.2
		c-2.2-6.6-2.6-13.1,1-19.7c3.1-5.8,5-12.3,7.6-18.4c4.8-11.6,12.3-20.5,25.8-19.9c16.4,0.7,29.8-6.9,44-12.9
		c5.5-2.3,11.7-4.1,17.7-4.4c16.3-0.6,32.1-2.6,47.3-8.9c12.8-5.3,25.8-5.5,39-0.7c12.4,4.5,25,8.2,37.5,12.1
		c14,4.4,23.3,13.2,25.9,28.1c0.3,1.8,0.9,3.5,1.3,5.3c2.7,11.3,5.3,22.6,8,33.9c2.6,10.7-1.9,24.3-11.5,29.7
		c-6.9,3.9-8.3,9.4-8.3,16.1c0,10.2,0.3,20.3,0.1,30.5c-0.2,11.2-4.3,20.8-13,28.1c-9,7.7-17.9,15.4-27.1,22.9
		c-2,1.6-4.6,2.9-7.1,3.3c-13.8,2.3-27.6,2.5-40.7-3.3c-4.1-1.8-8.4-4-11.2-7.2c-5.8-6.7-12.7-11-20.8-13.9c-1.9-0.7-3.5-2-5.2-2.9
		C198.5,133.5,193.9,129.9,193.8,122.2z M332.1,6.1c-0.5-3.8-0.7-7.2-1.4-10.4c-2.4-11.4-8.2-19.6-20.2-22.9
		c-14.1-3.8-28.1-8.3-42.1-12.5c-8.1-2.4-16.1-2.3-24.1,0.1c-4.1,1.3-8.1,3.4-12.3,4.1c-13.2,2.4-26.6,4-39.8,6.5
		c-7.1,1.3-15,2.2-20.8,5.9c-11.8,7.4-23.8,12.5-37.9,11.8c-0.8,0-1.7,0.1-2.5,0.2c-9.3,1.1-16.7,5.4-20,14.4
		c-3.5,9.5-6.2,19.2-8.7,29c-0.7,2.7,0.1,6.5,1.7,8.8c5.8,8.3,7.9,17.4,8.1,27.3c0.3,11,4,21,10.2,29.9
		c7.7,11.1,18.7,17.3,32.3,18.5c6.1,0.5,11.2-1.9,15.4-7c-9.5-5.2-10.6-14.1-11.7-22.9c-2-16.3,0.3-33.1-6-48.9
		c-0.5-1.1,0.4-4,1.2-4.2c1.4-0.4,3.9,0.1,4.6,1.2c2.1,3.3,4.6,6.8,5.2,10.5c1.5,10.2,2,20.5,3.1,30.8c1,10.1,1.7,20.3,6.9,29.4
		c3.6,6.2,8.5,10.3,16,10c1.4,0,3.6-1,3.9-2c2.6-8.2,9.1-12.5,15.7-16.7c2.6-1.7,5.3-3.3,8-5c-0.5-0.1-1-0.2-1.4-0.3
		c-0.3-4.4-1-8.9-0.9-13.3c0.3-9.5,0.9-19,1.6-28.4c0.7-9-1.5-16.8-8.2-23.1c-0.5-0.5-0.7-1.2-1.8-3.2c3.4,0.9,6,1,7.7,2.2
		c6.4,4.4,11.3,10,10.8,18.5c-0.4,7.3-1.6,14.6-1.8,21.9c-0.1,6.4,0.5,12.9,1.3,19.2c0.2,1.3,3.1,3.4,4.4,3.1
		c12-2.2,23.5,0.3,35,3.4c6.4,1.8,9.9,0.3,10.8-6.2c1-7.9,1-15.9,1.3-23.9c0.1-3.3,0.9-7-0.3-9.8c-4.6-10.2-4-20.8-3.2-31.4
		c1-13.2,8.8-21.1,20.9-25.2c2.6-0.9,5.6-1.2,8.3-1.1c1.4,0.1,2.7,1.8,4.1,2.7c-1,1.1-1.8,2.6-3.1,3.3c-1.6,0.9-3.5,1.1-5.2,1.6
		c-9.3,2.6-15.4,8.5-17.7,17.9c-1.1,4.5-1.9,9.1-2.1,13.8c-0.7,10.2,4.5,17.3,13.5,21.3c11.5,5.1,23.5,6,35.7,2.7
		c9.5-2.6,14.5-10.7,13.4-20.6c-0.3-3-0.7-6-1-8.9c-2-12.7-11.1-20-24-18.6c-3.4,0.4-6.9,1-10.3,1.5C312.8,4.4,321.9,3.9,332.1,6.1z
		 M321.4,69c-11.2-1.6-22.3-3.1-34-4.7c-1.5,3.6-3.4,8.2-5.8,14.1c4.6-0.9,7.8-1.6,11-2.2c0.4,0.5,0.7,1,1.1,1.4
		c-2.7,3.2-5.4,6.5-8.2,9.8c2.1,2.8,8.1,3.3,7.3,9.3c-11.2-3-12-3-17.1-0.6c10.5,11.4,13,22.1,6.2,29.6c-1.1-3.8-2.2-7-2.9-10.3
		c-0.8-4.2-1.5-8.2-5.9-10.3c-13.1-6.3-26.8-10.4-41.4-9.7c-13.4,0.7-24.4,6.5-31,18.8c-1.8,3.4-3,6.9-0.2,11
		c0.7-0.9,1.2-1.5,1.7-2.2c6.1-9.9,15.5-14.8,26.5-16.9c2.5-0.5,5.6-0.3,7.7,0.8c5,2.6,9.7,5.8,14.3,9.1c3.2,2.2,3.4,5.3,1.7,8.8
		c-3.5,7.3-9.2,12.1-16.4,15.4c-1.9,0.8-3.8,1.7-6,2.8c7.1,9.2,15.3,14.8,26.6,14.8c17.2,0.1,32-4.7,44.1-18.1
		c10.5-11.7,18.6-23.4,15.5-40c-0.3-1.6-0.1-3.3-0.1-5C316,85.3,317.2,76.5,321.4,69z M225.1,137.8c11.5,0.1,18.8-4.3,22.2-12.6
		c0.5-1.3,1-3.7,0.4-4.1c-6.1-4.3-12.3-11.2-18.9-11.8c-10.1-0.8-19,5.3-24.6,14.5c-0.7,1.1-0.4,4,0.5,4.6
		C211.5,133,218.5,137.2,225.1,137.8z"/>
	<path style="fill:#635E5E;" d="M334.4,42.3c0.1,4.9-1.7,6.2-6.5,5.3c-13.6-2.5-27.2-4.7-40.9,0.2c-3.4,1.2-5.5-1-4.8-4.5
		c2-10.7,4.8-14.2,16-15c9-0.7,18.2,0.1,27.2,1.2C332,30.3,334.3,34.4,334.4,42.3z M328.9,43.9c2-6.6,1.2-8.6-4.5-10.5
		C314.3,30,304.2,30.1,294,33c-5.8,1.7-7.3,3.5-7.6,10.9C300.7,39.7,314.9,39.5,328.9,43.9z"/>
</g>
</svg>
